<svg xmlns="http://www.w3.org/2000/svg" viewBox="0 0 1200 630" role="img" aria-labelledby="title desc">
  <title id="title">Diego Gonzalez Zapiain Systems Atlas social card</title>
  <desc id="desc">Editorial title and a five-stage operating trace on warm paper.</desc>
  <rect width="1200" height="630" fill="#f2ede3"/>
  <path d="M64 64h1072v502H64zM600 64v502" fill="none" stroke="#c6bdaf"/>
  <rect x="80" y="88" width="10" height="10" fill="#bd4633"/>
  <text x="108" y="98" fill="#606872" font-family="Arial, sans-serif" font-size="16" font-weight="700" letter-spacing="2">DGZ / SYSTEMS ATLAS</text>
  <g fill="#242b36" font-family="Georgia, serif" font-size="78">
    <text x="80" y="210">Systems that</text>
    <text x="80" y="292">survive contact</text>
    <text x="80" y="374">with reality.</text>
  </g>
  <g fill="#606872" font-family="Arial, sans-serif" font-size="18">
    <text x="80" y="426">Technical Lead at PAZZ Marketplace</text>
    <text x="80" y="454">Co-Founder &amp; Technical Lead at LOJIK Labs</text>
  </g>
  <text x="80" y="532" fill="#242b36" font-family="Arial, sans-serif" font-size="20" font-weight="700">Diego Gonzalez Zapiain</text>
  <g transform="translate(650 112)">
    <rect width="438" height="390" fill="#171c23"/>
    <path d="M42 244C86 244 101 122 150 122s66 102 112 102 62-142 106-142 43 116 48 116" fill="none" stroke="#424954" stroke-width="4"/>
    <path d="M42 244C86 244 101 122 150 122s66 102 112 102 62-142 106-142 43 116 48 116" fill="none" stroke="#f29a85" stroke-width="5"/>
    <g fill="#171c23" stroke="#b3bbc6" stroke-width="3"><circle cx="42" cy="244" r="8"/><circle cx="150" cy="122" r="8"/><circle cx="262" cy="224" r="8"/><circle cx="368" cy="82" r="8"/><circle cx="416" cy="198" r="9"/></g>
    <g fill="#b3bbc6" font-family="Arial, sans-serif" font-size="11" font-weight="700" letter-spacing="1"><text x="24" y="278">FIND</text><text x="127" y="101">OWN</text><text x="239" y="258">BUILD</text><text x="342" y="61">PROVE</text><text x="385" y="231">RETURN</text></g>
    <path d="M32 322h374" stroke="#424954"/>
    <text x="32" y="352" fill="#b3bbc6" font-family="Arial, sans-serif" font-size="12" font-weight="700" letter-spacing="1.8">AMBIGUITY → RECOVERY</text>
  </g>
</svg>
