<svg xmlns="http://www.w3.org/2000/svg" viewBox="0 0 1200 630" role="img" aria-labelledby="title desc">
  <title id="title">LOJIK Labs case study social card</title>
  <desc id="desc">An accountable-systems-delivery title beside an evidence ladder that stops before unclaimed outcomes.</desc>
  <rect width="1200" height="630" fill="#171c23"/>
  <path d="M64 64h1072v502H64z" fill="none" stroke="#424954"/>
  <rect x="80" y="88" width="10" height="10" fill="#f29a85"/>
  <text x="108" y="99" fill="#b3bbc6" font-family="Arial, sans-serif" font-size="16" font-weight="700" letter-spacing="2">LOJIK LABS · CO-FOUNDER &amp; TECHNICAL LEAD</text>
  <g fill="#f2ede3" font-family="Georgia, serif" font-size="76">
    <text x="80" y="205">Accountable</text>
    <text x="80" y="285">systems delivery.</text>
  </g>
  <text x="80" y="350" fill="#b3bbc6" font-family="Arial, sans-serif" font-size="20">Workflow · Authority · Evidence · Recovery</text>
  <path d="M80 518h150v-46h150v-46h150v-46h150v-46h150v-46h150" fill="none" stroke="#b3bbc6" stroke-width="3"/>
  <path d="M80 518h150v-46h150v-46h150v-46h150v-46h150" fill="none" stroke="#f29a85" stroke-width="5"/>
  <path d="M830 288h150" stroke="#424954" stroke-width="4" stroke-dasharray="10 10"/>
  <g font-family="Arial, sans-serif" font-size="12" font-weight="700" text-anchor="middle" letter-spacing="1"><text x="155" y="550" fill="#f2ede3">SOURCE</text><text x="305" y="504" fill="#f2ede3">LOCAL</text><text x="455" y="458" fill="#f2ede3">HOSTED</text><text x="605" y="412" fill="#f2ede3">RUNTIME</text><text x="755" y="366" fill="#f2ede3">PRODUCTION</text><text x="905" y="320" fill="#f29a85">OUTCOME / NOT CLAIMED</text></g>
  <text x="80" y="590" fill="#b3bbc6" font-family="Arial, sans-serif" font-size="18" font-weight="700">Diego Gonzalez Zapiain / Systems Atlas</text>
</svg>
